<svg xmlns="http://www.w3.org/2000/svg" xmlns:xlink="http://www.w3.org/1999/xlink" viewBox="0 0 265.77 47.71"><defs><style>.cls-1,.cls-2{fill:none;}.cls-2{clip-path:url(#clip-path);}.cls-3{clip-path:url(#clip-path-7);}.cls-4{fill:#fff;}.cls-5{clip-path:url(#clip-path-8);}.cls-6{clip-path:url(#clip-path-9);}.cls-7{clip-path:url(#clip-path-10);}.cls-8{clip-path:url(#clip-path-11);}.cls-9{clip-path:url(#clip-path-12);}</style><clipPath id="clip-path"><rect class="cls-1" x="4.08" y="4.72" width="257" height="38"/></clipPath><clipPath id="clip-path-7"><polyline class="cls-2" points="98.52 36.61 98.52 19.16 93.43 30.34 90.48 30.34 85.4 19.2 85.4 36.61 80.91 36.61 80.91 11.1 86.04 11.1 92.02 23.68 97.92 11.1 103 11.1 103 36.61 98.52 36.61"/></clipPath><clipPath id="clip-path-8"><path class="cls-2" d="M121.48,16.86,118,26.92h6.88l-3.42-10.06Zm6.71,19.75-1.88-5.42h-9.7l-1.88,5.42h-4.79l8.93-25.51h5.21L133,36.61Zm25.55-19.54s0-.26,0-.3c-.26-.47-.94-1.32-1.37-1.36H144.6v6.82h7.52c.38,0,1.24-.85,1.58-1.45a.43.43,0,0,0,0-.17V17.07Zm.69,19.54L148.7,26.5h-4.1V36.61h-4.49V11.14h12a5.66,5.66,0,0,1,3.08.94,14.72,14.72,0,0,1,2.26,2.35,4.73,4.73,0,0,1,.77,2.6V20.7a4.69,4.69,0,0,1-.77,2.6,14.63,14.63,0,0,1-2.26,2.26,4.68,4.68,0,0,1-1.58.64l6.11,10.41Zm16.74-6.23s0,.13,0,.17a7.56,7.56,0,0,0,1.88,2,.51.51,0,0,0,.22,0h1l-.64-1.49,4.11-1.36L179,32.55h.56a.61.61,0,0,0,.21,0,7.28,7.28,0,0,0,1.79-2,.39.39,0,0,0,0-.17V17.2s0-.13,0-.17a6.27,6.27,0,0,0-1.79-1.79.41.41,0,0,0-.21-.05h-6.24s-.17,0-.22.05A6.55,6.55,0,0,0,171.21,17a.43.43,0,0,0,0,.17V30.38Zm9.44,6.44,1.67,3.71h-4.74L176,36.82h-2.82a5.31,5.31,0,0,1-2.65-.77A14.91,14.91,0,0,1,167.37,33a4.33,4.33,0,0,1-.69-2.43V17.2a4.33,4.33,0,0,1,.69-2.43,14.91,14.91,0,0,1,3.12-3.07,5.31,5.31,0,0,1,2.65-.77h6.49a5.44,5.44,0,0,1,2.65.77,16.23,16.23,0,0,1,3.12,3.07,4.32,4.32,0,0,1,.68,2.43V30.55A4.32,4.32,0,0,1,185.4,33a16.23,16.23,0,0,1-3.12,3.07,4.71,4.71,0,0,1-1.71.68l0,.09Z"/></clipPath><clipPath id="clip-path-9"><polyline class="cls-2" points="195.08 36.61 195.08 11.1 211.15 11.1 211.15 15.36 199.57 15.36 199.57 21.8 210.46 21.8 210.46 26.07 199.57 26.07 199.57 32.34 211.15 32.34 211.15 36.61 195.08 36.61"/></clipPath><clipPath id="clip-path-10"><polyline class="cls-2" points="229.21 15.36 229.21 36.61 224.73 36.61 224.73 15.36 217.8 15.36 217.8 11.1 236.13 11.1 236.13 15.36 229.21 15.36"/></clipPath><clipPath id="clip-path-11"><path class="cls-2" d="M249.27,16.86l-3.46,10.06h6.88l-3.42-10.06ZM256,36.61l-1.88-5.42h-9.7l-1.88,5.42h-4.78l8.93-25.51h5.21l8.89,25.51Z"/></clipPath><clipPath id="clip-path-12"><polyline class="cls-2" points="5 5 17.81 23.85 5 42.71 12.17 42.71 24.98 23.85 15.33 9.71 22.5 9.71 32.11 23.85 19.33 42.71 40.84 42.71 53.61 23.85 44.05 9.71 51.21 9.71 60.78 23.85 48 42.71 55.13 42.71 67.94 23.85 55.13 5 33.66 5 46.44 23.85 36.83 37.99 29.7 37.99 39.28 23.85 26.5 5 5 5"/></clipPath></defs><title>Asset 1</title><g id="Layer_2" data-name="Layer 2"><g id="Layer_1-2" data-name="Layer 1"><g class="cls-3"><rect class="cls-4" x="75.91" y="6.1" width="32.09" height="35.51"/></g><g class="cls-5"><rect class="cls-4" x="104.94" y="5.93" width="86.14" height="39.6"/></g><g class="cls-6"><rect class="cls-4" x="190.08" y="6.1" width="26.07" height="35.51"/></g><g class="cls-7"><rect class="cls-4" x="212.8" y="6.1" width="28.33" height="35.51"/></g><g class="cls-8"><rect class="cls-4" x="232.74" y="6.1" width="33.03" height="35.51"/></g><g class="cls-9"><rect class="cls-4" width="72.94" height="47.71"/></g></g></g></svg>